<?xml version="1.0" encoding="UTF-8"?>
<svg id="Calque_1" xmlns="http://www.w3.org/2000/svg" version="1.1" viewBox="0 0 134.8 111.5">
  <!-- Generator: Adobe Illustrator 30.1.0, SVG Export Plug-In . SVG Version: 2.1.1 Build 136)  -->
  <defs>
    <style>
      .st0 {
        fill: #fff;
      }
    </style>
  </defs>
  <path class="st0" d="M122.3,26.4c-6.2-7.5-14.9-12.1-25.8-14l-12.9,21.8h1.1c5.9,0,10.3,2.6,13.4,7.9,3.1,5.3,4.7,11.5,4.7,18.8s-1.8,15.2-5.2,20.1c-3.5,4.9-7.8,7.4-12.8,7.4h-8v-42.7l-13,21.9-17.7,29.8v14h40.6c14.3,0,25.9-4.7,34.9-14s13.4-21.5,13.4-36.4-4.2-24.6-12.5-34.6h0Z"/>
  <polygon class="st0" points="95.1 0 90.1 8.4 77.2 30.1 70.2 41.8 57.2 63.6 39.5 93.4 35.6 100 1 100 27.8 54.8 0 0 28.9 .1 39.5 21.2 44.7 31.4 59.1 7.4 63.4 .3 95.1 0"/>
</svg>